<svg width="498" height="498" fill="none" xmlns="http://www.w3.org/2000/svg">
  <path d="M191.5 457.1c-7.91 13.7-20.85 13.7-28.76 0-7.9-13.69-1.43-24.9 14.38-24.9s22.28 11.21 14.38 24.9z" fill="#FBBC04"/>
  <path d="M119.62 64.93c-3.96 6.85-10.43 6.85-14.38 0-3.95-6.85-.72-12.45 7.19-12.45 7.9 0 11.14 5.6 7.19 12.45z" fill="#34A853"/>
  <path d="M381.98 226.78c15.81-27.39 41.69-27.39 57.5 0 15.82 27.4 2.88 49.8-28.75 49.8s-44.57-22.4-28.75-49.8z" fill="#4285F4"/>
  <path d="M51.33 226.78c-7.9 13.7-20.85 13.7-28.75 0-7.9-13.7-1.44-24.9 14.37-24.9 15.82 0 22.29 11.2 14.38 24.9z" fill="#EA4335"/>
  <path d="M462.65 112.85c-1.97-3.42-5.21-3.42-7.19 0-1.97 3.42-.36 6.22 3.6 6.22 3.95 0 5.57-2.8 3.6-6.22zm-413.12 24.1a1.9 1.9 0 0 0 3.6 0c.99-1.71.18-3.11-1.8-3.11s-2.79 1.4-1.8 3.11zM311.9 473.1a1.9 1.9 0 0 0-2.9-.93 1.9 1.9 0 0 0-.7.93c-.99 1.71-.18 3.11 1.8 3.11 1.97 0 2.78-1.4 1.8-3.11zm168.91-230.32a1.9 1.9 0 0 0-3.6 0c-.98 1.7-.17 3.1 1.8 3.1 1.98 0 2.8-1.4 1.8-3.1z" fill="#DADCE0"/>
  <path d="M334.3 34.64a1 1 0 0 1 1.4-.93 1 1 0 0 1 .61.93 1 1 0 0 1-1 1 1 1 0 0 1-1-1zm9.16-2.93a1.02 1.02 0 0 1 .02-1.43.98.98 0 0 1 1.09-.2c.12.05.23.13.31.22a.98.98 0 0 1 .23 1.09.98.98 0 0 1-.23.32.97.97 0 0 1-.7.3 1.02 1.02 0 0 1-.72-.3zm-17.71-.04v-.02a.98.98 0 0 1-.23-1.09.98.98 0 0 1 .23-.32 1 1 0 0 1 1.1-.22 1.03 1.03 0 0 1 .33 1.65c-.2.18-.46.28-.73.28-.26 0-.51-.1-.7-.28zm22.15-8.5a1.02 1.02 0 0 1-.93-1.4.98.98 0 0 1 .93-.6 1 1 0 0 1 1 1 1.02 1.02 0 0 1-1 1zm-26.1-1.08v-.16a1 1 0 0 1 .3-.71.98.98 0 0 1 .72-.28 1 1 0 0 1 .98 1v.16a.98.98 0 0 1-.62.93.99.99 0 0 1-.38.07.99.99 0 0 1-.93-.62 1 1 0 0 1-.08-.38zm21.78-8.11a.98.98 0 0 1-.22-1.09.98.98 0 0 1 .22-.32 1 1 0 0 1 1.43 0 1.01 1.01 0 0 1-.02 1.43 1.04 1.04 0 0 1-1.1.2.93.93 0 0 1-.31-.22zm-17.73-.16a.97.97 0 0 1-.28-.71.97.97 0 0 1 .3-.7.99.99 0 0 1 1.4 0 1 1 0 0 1 0 1.43.97.97 0 0 1-.7.28 1.02 1.02 0 0 1-.72-.3zm9.6-3.28a1 1 0 0 1-1-1 1.03 1.03 0 0 1 1.02-1 1 1 0 0 1 .9 1.38.99.99 0 0 1-.92.62zM407.2 421.7a1 1 0 0 1-.7-.3 1 1 0 0 1-.3-.71.92.92 0 0 1 .3-.7.99.99 0 0 1 1.08-.22.88.88 0 0 1 .54.54 1 1 0 0 1-.93 1.39zm18.3-1.01a1 1 0 0 1 1.03-1 1 1 0 1 1-.39 1.93 1 1 0 0 1-.63-.93zm-9.65 0a1 1 0 1 1 2.01 0 1 1 0 0 1-2.01 0zm20.35 1.01a.8.8 0 0 1-.39-.09.93.93 0 0 1-.34-.22 1 1 0 0 1-.28-.7c0-.13.02-.26.06-.38a1.02 1.02 0 0 1 1.32-.54c.13.04.23.12.32.22a1 1 0 0 1 .3.7c0 .26-.1.51-.3.7a.94.94 0 0 1-.7.3zm-29 50.2a.99.99 0 0 1-.7-.3.96.96 0 0 1-.3-.7 1.03 1.03 0 0 1 .61-.93 1.03 1.03 0 0 1 1.1.22 1.02 1.02 0 0 1 0 1.4c-.09.1-.2.18-.33.22a.82.82 0 0 1-.38.08zm18.33-1a1 1 0 0 1 1.7-.72 1.02 1.02 0 0 1 .3.71 1.02 1.02 0 0 1-1.02 1 1 1 0 0 1-.98-1zm-9.66 0a.98.98 0 0 1 .98-1.01 1 1 0 0 1 .93.62 1 1 0 0 1-.22 1.09 1 1 0 0 1-.7.3 1 1 0 0 1-.99-1zm20.33 1a.98.98 0 0 1-.73-.3.95.95 0 0 1-.28-.7c0-.14.02-.27.06-.39.06-.12.13-.23.22-.32a1.03 1.03 0 0 1 1.42 0c.1.09.18.2.22.32a1 1 0 0 1 .08.38c0 .27-.1.52-.3.7-.08.1-.2.18-.32.23a.87.87 0 0 1-.38.07zm-34.7-8.88a1.02 1.02 0 0 1 1.13-1.47.98.98 0 0 1 .6.46 1 1 0 0 1-.06 1.13 1 1 0 0 1-.3.26 1.05 1.05 0 0 1-1.39-.38zm-4.83-8.35a1.02 1.02 0 0 1 .37-1.39 1.01 1.01 0 0 1 1.46 1.14.98.98 0 0 1-.46.6 1.1 1.1 0 0 1-.5.15.99.99 0 0 1-.87-.5zm-3.95-7.87a.93.93 0 0 1-.4-.09 1.02 1.02 0 0 1-.32-1.63 1.03 1.03 0 0 1 1.64.33.98.98 0 0 1-.22 1.08c-.09.1-.2.18-.32.22a.86.86 0 0 1-.38.08zm57.95 0a.92.92 0 0 1-.7-.3.97.97 0 0 1 0-1.41 1.03 1.03 0 0 1 1.42 0 1.02 1.02 0 0 1-.33 1.63.98.98 0 0 1-.39.07zm-5.7-8.88a1.02 1.02 0 0 1 1.14-1.47 1 1 0 0 1 .71 1.23c-.07.26-.24.48-.47.62a1.05 1.05 0 0 1-1.39-.38zm-4.82-8.36a1.01 1.01 0 0 1 .36-1.38 1.01 1.01 0 0 1 1.3 1.49 1 1 0 0 1-.3.26 1.08 1.08 0 0 1-1 0 .98.98 0 0 1-.36-.37zm.35 33.84a1.01 1.01 0 0 1 .64-1.88 1 1 0 0 1 .37.13 1 1 0 0 1 .37 1.37 1 1 0 0 1-.87.5c-.17 0-.34-.04-.5-.12zm4.85-8.37a1.02 1.02 0 0 1-.38-1.37 1.04 1.04 0 0 1 1.38-.38 1.01 1.01 0 0 1 .36 1.39 1 1 0 0 1-.86.5.9.9 0 0 1-.5-.14zm-48.32-16.73a1.01 1.01 0 0 1 .64-1.88c.13.02.25.07.37.13a.98.98 0 0 1 .49 1 1 1 0 0 1-.13.37 1 1 0 0 1-.86.5c-.18 0-.35-.04-.5-.12zm4.84-8.37a1.01 1.01 0 0 1-.38-1.37 1.04 1.04 0 0 1 1.39-.38 1.01 1.01 0 0 1-.5 1.89.92.92 0 0 1-.5-.14zM32.53 352.42a.96.96 0 0 1-.4-.09.83.83 0 0 1-.32-.22 1.08 1.08 0 0 1-.22-1.08c.05-.12.13-.23.22-.32.09-.1.2-.18.32-.22a1.01 1.01 0 0 1 1.1.22 1 1 0 0 1 .3.7 1 1 0 0 1-.3.7c-.08.1-.2.18-.32.22a.87.87 0 0 1-.38.09zm3.11-6.42a1.01 1.01 0 0 1 1-1.74 1.01 1.01 0 0 1-.5 1.89 1.2 1.2 0 0 1-.5-.14zm4.12-6.13a.88.88 0 0 1-.38-.09.83.83 0 0 1-.32-.22.97.97 0 0 1-.22-.32 1.3 1.3 0 0 1-.08-.38 1 1 0 0 1 .08-.38.91.91 0 0 1 .22-.32c.09-.1.2-.18.32-.22.25-.1.53-.1.78 0 .12.04.23.12.32.22.1.1.17.2.22.32a1.26 1.26 0 0 1 0 .76c-.05.12-.13.23-.22.32-.09.1-.2.18-.32.22a.97.97 0 0 1-.4.09zm0 25.09a.97.97 0 0 1-.7-.3.98.98 0 0 1-.3-.7 1 1 0 0 1 .08-.38 1.01 1.01 0 0 1 1.65-.32c.08.1.16.2.21.32.05.12.08.25.08.38s-.03.26-.08.38a.92.92 0 0 1-.22.32c-.09.1-.2.17-.32.22a.9.9 0 0 1-.4.08zm3.14-6.4a1.01 1.01 0 0 1 .24-1.85 1 1 0 0 1 1.05.37 1.02 1.02 0 0 1-.8 1.62 1.1 1.1 0 0 1-.5-.14zm4.1-6.14a.88.88 0 0 1-.37-.09.7.7 0 0 1-.32-.22.9.9 0 0 1-.23-.32.94.94 0 0 1 0-.76.92.92 0 0 1 .23-.32 1 1 0 0 1 1.08-.22c.13.04.25.12.34.22.1.1.17.2.22.32a1.25 1.25 0 0 1 0 .76 1.01 1.01 0 0 1-.94.62zm-8.24-1.01a1.01 1.01 0 0 1 2.02 0 1 1 0 0 1-1.39.93 1 1 0 0 1-.63-.93zm-7.23-12.55a1 1 0 0 1 1-1 1 1 0 0 1 1 1 1 1 0 0 1-1.93.39.99.99 0 0 1-.07-.39zm-6.25 1a.81.81 0 0 1-.38-.08.89.89 0 0 1-.34-.22 1 1 0 0 1-.2-1.08.87.87 0 0 1 .2-.32 1.02 1.02 0 0 1 1.1-.22c.13.04.24.12.32.22.1.09.18.2.22.32.05.12.08.25.09.38-.01.26-.12.52-.3.7a.8.8 0 0 1-.33.22.87.87 0 0 1-.38.08zm10 18.34a1 1 0 0 1 .07-1.13 1 1 0 1 1 1.3 1.49 1.1 1.1 0 0 1-.5.14 1 1 0 0 1-.87-.5zm-7.25-12.57a1 1 0 0 1 .36-1.37 1 1 0 0 1 1.5.74 1.01 1.01 0 0 1-1.5 1.01.97.97 0 0 1-.36-.38zm14.48.02a1.04 1.04 0 0 1 .38-1.39 1 1 0 0 1 1 1.75 1.2 1.2 0 0 1-.5.14 1.05 1.05 0 0 1-.88-.5zM249 111.45c-75.9 0-137.55 61.64-137.55 137.55 0 75.9 61.64 137.55 137.55 137.55 75.9 0 137.55-61.65 137.55-137.55S324.9 111.45 249 111.45zm.8 271.29c-23.29-24.3-23.09-63.26.6-87.15 25.3-25.7 25.3-67.47 0-93.18-23.49-24.1-23.69-63.05-.6-87.15a132.3 132.3 0 0 1 60.25 14.86 62.81 62.81 0 0 1-11.05 72.5c-25.3 25.7-25.3 67.46 0 93.17a62.81 62.81 0 0 1 11.05 72.49 134.62 134.62 0 0 1-60.25 14.46zm-61.84-14.66a62.81 62.81 0 0 1 11.04-72.5c25.3-25.7 25.3-67.46 0-93.17a62.81 62.81 0 0 1-11.04-72.49 131.59 131.59 0 0 1 56.62-14.66c-22.09 25.9-21.08 65.27 3.01 89.76 23.7 24.3 23.7 63.66 0 87.76-24.1 24.5-25.1 63.85-3 89.76a134.3 134.3 0 0 1-56.63-14.46zm-5.43-3.01a125.34 125.34 0 0 1-17.27-11.85c4.62-21.89-1.8-44.38-17.47-60.24-23.7-24.3-23.7-63.66 0-87.76 15.67-15.86 22.1-38.35 17.47-60.24a125.34 125.34 0 0 1 17.27-11.85 66.27 66.27 0 0 0 13.86 72.1c23.7 24.3 23.7 63.65 0 87.75-18.88 19.07-24.1 47.39-13.86 72.09zm119.08-72.1c-23.7-24.3-23.7-63.65 0-87.75a66.27 66.27 0 0 0 13.86-72.09 125.28 125.28 0 0 1 17.27 11.85c-4.62 21.89 1.8 44.38 17.47 60.24 23.7 24.3 23.7 63.66 0 87.76-15.67 15.86-22.1 38.35-17.47 60.24a125.28 125.28 0 0 1-17.27 11.85c10.24-24.7 5.02-53.02-13.86-72.1zM115.26 249c0-40.56 18.08-76.9 46.59-101.4a62.04 62.04 0 0 1-16.87 54.81c-25.3 25.7-25.3 67.47 0 93.18a62.04 62.04 0 0 1 16.87 54.82A133.35 133.35 0 0 1 115.26 249zm220.89 101.4a62.05 62.05 0 0 1 16.87-54.81c25.3-25.7 25.3-67.47 0-93.18a62.05 62.05 0 0 1-16.87-54.82A133.35 133.35 0 0 1 382.74 249c0 40.56-18.07 76.9-46.59 101.4z" fill="#202124"/>
</svg>
